<svg id="Logo" xmlns="http://www.w3.org/2000/svg" width="2000" height="2000" viewBox="0 0 2000 2000">
  <defs>
    <style>
      .cls-1, .cls-2, .cls-3, .cls-4 {
        fill-rule: evenodd;
      }

      .cls-2, .cls-4 {
        fill: #39c;
      }

      .cls-3 {
        fill: #03f;
      }

      .cls-4 {
        stroke: #0b0b0e;
        stroke-width: 1px;
      }
    </style>
  </defs>
  <g id="TextShapes">
    <path id="IIIT_HYDERABAD" data-name="IIIT HYDERABAD" class="cls-1" d="M515.5,1628.7h16.582v-76.94H515.5v76.94Zm43.927,0h16.583v-76.94H559.431v76.94Zm43.928,0h16.582v-76.94H603.359v76.94Zm37.183-60.59h17.52v60.59h16.582v-60.59H692.28v-16.35H640.542v16.35Zm118.512,60.59h16.582v-30.59h27.246v30.59h16.582v-76.94H802.882v29.65H775.636v-29.65H759.054v76.94Zm105.384-35.98v35.98h16.407v-35.98l24.492-40.96H886.9l-14.4,23.86-14.194-23.86H839.946Zm61.429,35.98h24.844q17.577,0,28.154-10.49t10.576-27.89q0-17.34-10.254-27.95t-27.07-10.61h-26.25v76.94Zm22.793-62.4a34.914,34.914,0,0,1,11.455,2.08,16.169,16.169,0,0,1,9.17,7.91,27.61,27.61,0,0,1,3.164,13.39q0,13-6.563,18.57t-16.757,5.57h-6.563V1566.3h6.094Zm65.34,62.4h43.3v-15.23h-26.71v-15.94h26.71v-15h-26.71V1567h26.71v-15.24H1014v76.94Zm70.1,0h16.59v-29.77h1.87l19.91,29.77h19.05L1120,1596.63q8.265-3.63,11.35-10.02a28.155,28.155,0,0,0,3.09-12.3q0-10.365-6.72-16.45-6.72-6.1-18.28-6.1H1084.1v76.94Zm20.52-63.22c4,0,7.13.84,9.38,2.54a8.168,8.168,0,0,1,3.38,6.89q0,10.6-12.99,10.61h-3.59v-20.04h3.82Zm56.76,63.22h16.6l6.03-15.12h29.53l6.15,15.12h16.69l-31.34-76.94h-12.85Zm46.48-29.06h-18.29l9.05-22.68Zm49.68,29.06h25.75q13.17,0,20.43-5.92t7.26-16.54a21.529,21.529,0,0,0-3.31-11.46q-3.315-5.37-11.28-8.12a25.455,25.455,0,0,0,6.03-6.94,17.271,17.271,0,0,0,1.88-8.4,20.1,20.1,0,0,0-5.15-13.7q-5.16-5.85-19.2-5.86h-22.41v76.94Zm20.49-64.05a10.975,10.975,0,0,1,7,2.21,6.62,6.62,0,0,1,2.8,5.38,8.7,8.7,0,0,1-2.86,6.62,9.943,9.943,0,0,1-7.06,2.67h-3.79v-16.88h3.91Zm2.85,29.95q6.165,0,9.49,2.91t3.32,8.31q0,9.99-13.63,9.99h-5.94V1594.6h6.76Zm45.59,34.1h16.6l6.03-15.12h29.53l6.16,15.12h16.68l-31.34-76.94h-12.84Zm46.48-29.06h-18.28l9.04-22.68Zm49.57,29.06h24.84q17.58,0,28.15-10.49t10.58-27.89q0-17.34-10.25-27.95t-27.07-10.61h-26.25v76.94Zm22.79-62.4a34.876,34.876,0,0,1,11.45,2.08,16.147,16.147,0,0,1,9.17,7.91,27.6,27.6,0,0,1,3.17,13.39q0,13-6.56,18.57t-16.76,5.57h-6.57V1566.3h6.1Z"/>
    <path id="WANDERLUST" class="cls-1" d="M428.428,1383.97H378.242v7.04q2.892,0.255,6.794.74a35.929,35.929,0,0,1,6.355,1.28,15.574,15.574,0,0,1,4.6,2.28,3.91,3.91,0,0,1,1.713,3.17,30.7,30.7,0,0,1-1.055,7.29q-1.054,4.215-2.813,10.46-2.986,10.2-7.336,24.52t-11.642,36.91l-32.835-93.69H323.379l-28.424,90.8q-9.406-28.35-15.823-47.49t-8.526-25.99c-0.234-1-.454-1.87-0.659-2.64a9.019,9.019,0,0,1-.307-2.37,3.545,3.545,0,0,1,.351-1.41,3.649,3.649,0,0,1,1.931-1.49,28.355,28.355,0,0,1,4.561-1.36q2.893-.66,8.771-1.37v-6.68H218.721v6.86a42.556,42.556,0,0,1,6.2,1.19,17.48,17.48,0,0,1,5.054,2.33,32.606,32.606,0,0,1,5.449,4.35,18.776,18.776,0,0,1,3.779,6.9q5.361,15.645,13.184,38.71,7.821,23.085,22.5,65.79h17.736l29.664-92.65,32.84,92.65h17.758q10.9-31.725,20.962-61.17t14.9-42.81a34.973,34.973,0,0,1,3.12-6.59,15.861,15.861,0,0,1,5.757-5.01,37.066,37.066,0,0,1,5.362-2.33,24.148,24.148,0,0,1,5.449-1.18v-7.04Zm137.638,117.87a41.282,41.282,0,0,1-5.889-.88,19.9,19.9,0,0,1-5.713-2.11,18.715,18.715,0,0,1-5.01-4.09,20.1,20.1,0,0,1-2.9-4.79q-6.855-16.17-16.611-40.78t-26.983-66.97H485.382q-12.393,29.88-22.632,54.67t-20.434,49.48a27.542,27.542,0,0,1-4.175,7.3,22.242,22.242,0,0,1-6.109,5.18,17.663,17.663,0,0,1-5.756,2.07,47.347,47.347,0,0,1-6.548.92v6.86H470.88v-6.86q-9.923-.87-14.182-2.86-4.26-1.965-4.258-4.79a25.766,25.766,0,0,1,.307-3.07,45.148,45.148,0,0,1,1.968-7.12q1.311-3.78,3.1-8.62t3.278-8.43h43.054l10.643,25.84a11.046,11.046,0,0,1,.747,2.37,10.76,10.76,0,0,1,.132,1.58q0,2.025-6.4,3.39a83.666,83.666,0,0,1-11.14,1.71v6.86h67.94v-6.86Zm-101.373-43.6,17.787-45.08,18.051,45.08H464.693ZM735,1383.97H681.472v6.86a76.9,76.9,0,0,1,8.086,1.98,22.084,22.084,0,0,1,7.559,3.47q3.251,2.625,4.746,8.12t1.494,16.74v47.18l-68.189-84.35H588.22v7.04a43.134,43.134,0,0,1,9.1,2.68,23.136,23.136,0,0,1,7.075,4.7,17.106,17.106,0,0,1,4.263,6.72,25.111,25.111,0,0,1,1.362,8.31v59.06q0,12.135-1.274,17.27a13.115,13.115,0,0,1-4.7,7.7,20.977,20.977,0,0,1-7.427,3.12,56.033,56.033,0,0,1-7.866,1.27v6.86h53.613v-6.86a79.6,79.6,0,0,1-8.262-2.02,21.841,21.841,0,0,1-7.558-3.43q-3.254-2.64-4.7-8.31c-0.967-3.77-1.451-9.3-1.451-16.56v-58.54l77.7,96.42h15.644v-89.13q0-11.16,1.363-16.91t4.614-8.13a18.4,18.4,0,0,1,8.262-3.43q4.569-.705,7.031-0.97v-6.86Zm116.129,2.73a103.935,103.935,0,0,0-22.763-2.73H762.006v6.86q2.02,0.18,5.757.7a26.387,26.387,0,0,1,7.075,2.03,8.463,8.463,0,0,1,4.483,3.91,12.5,12.5,0,0,1,1.142,5.4v88.42a11.118,11.118,0,0,1-1.23,5.41,8.489,8.489,0,0,1-4.395,3.56,22.374,22.374,0,0,1-5.625,1.05c-2.812.3-5.157,0.47-7.031,0.53v6.86h62.842a106.559,106.559,0,0,0,28.081-3.65,75.189,75.189,0,0,0,23.95-11.12,55.635,55.635,0,0,0,16.655-19.21q6.284-11.73,6.284-27.55,0-18.015-7.031-30.45a56.6,56.6,0,0,0-18.457-19.91A70.82,70.82,0,0,0,851.127,1386.7Zm-6.064,110.31a36.634,36.634,0,0,1-17.051,3.69,24.308,24.308,0,0,1-7.69-1.01,14.085,14.085,0,0,1-4.966-2.86,10.237,10.237,0,0,1-2.857-4.26,17.049,17.049,0,0,1-.835-5.58v-94.67c1.288-.05,3.237-0.13,5.845-0.22s4.936-.13,6.987-0.13a36.834,36.834,0,0,1,17.271,3.96,35.4,35.4,0,0,1,12.7,11.16,52.789,52.789,0,0,1,7.734,17.4,90.225,90.225,0,0,1,2.637,22.59,112.955,112.955,0,0,1-1.977,22.37,51.522,51.522,0,0,1-6.285,16.75A29.228,29.228,0,0,1,845.063,1497.01Zm188.667-113.04H923.165v6.86q2.109,0.27,6.24,1.14a31.377,31.377,0,0,1,6.416,1.94c2.461,1.11,4.013,2.36,4.658,3.73a12.367,12.367,0,0,1,.967,5.23v87.98a11.718,11.718,0,0,1-1.142,5.5,8.591,8.591,0,0,1-4.483,3.56,26.744,26.744,0,0,1-5.976,1.23q-4.219.525-6.68,0.7v6.86H1040.15l2.37-38.85h-6.42a94.165,94.165,0,0,1-6.94,13.22,71.892,71.892,0,0,1-9.49,13.14,10.068,10.068,0,0,1-4.79,2.55,46.4,46.4,0,0,1-6.9,1.32,66.143,66.143,0,0,1-7.56.53q-4.307.09-7.382,0.09a80.44,80.44,0,0,1-10.415-.53,12.613,12.613,0,0,1-6.021-2.2,8.849,8.849,0,0,1-3.12-5.05,37.812,37.812,0,0,1-.835-8.92v-35.95h12.832a31.566,31.566,0,0,1,9.141,1.19,15.048,15.048,0,0,1,6.86,4.35c1.28,1.4,2.65,3.97,4.08,7.69a44.039,44.039,0,0,1,2.68,9.27h6.68v-52.03h-6.68a42.065,42.065,0,0,1-2.68,8.87c-1.38,3.4-2.74,5.78-4.08,7.12a16.717,16.717,0,0,1-7.212,4.4,31.683,31.683,0,0,1-8.789,1.14H972.647v-48.08h18.106c2.05,0,4.643.05,7.778,0.13a38.919,38.919,0,0,1,7.339.75q6.15,1.32,12.39,8.58a46.629,46.629,0,0,1,8.79,14.36h6.68v-31.82Zm179.23,117.87c-0.88-.06-2.36-0.23-4.44-0.53a34.5,34.5,0,0,1-5.14-1.05q-3.6-1.14-8.31-6.11-4.695-4.965-7.42-8.39-8.625-10.635-16.57-20.84-7.95-10.185-13.93-17.93,15.375-4.47,22.89-12.43t7.52-21.05q0-14.85-12.17-22.2-12.18-7.335-35.64-7.34h-69.96v6.86q2.19,0.36,6.02,1.14a38.825,38.825,0,0,1,6.63,1.94q3.69,1.575,4.66,3.69a12.688,12.688,0,0,1,.97,5.27v87.98a11.714,11.714,0,0,1-1.15,5.5,8.554,8.554,0,0,1-4.48,3.56,25.532,25.532,0,0,1-5.93,1.18c-2.78.33-5.03,0.57-6.72,0.75v6.86h66.53v-6.86a61.5,61.5,0,0,1-6.11-1.01,31.058,31.058,0,0,1-5.23-1.45,9.174,9.174,0,0,1-4.53-3.69,11.173,11.173,0,0,1-1.18-5.36v-37.89h4.82q12.2,14.775,20.41,26.02t20.6,30.24h47.86v-6.86Zm-66.97-64.43q-7.125,6.78-20.04,6.77h-6.68v-52.21h6.94q12.915,0,19.91,5.76t6.99,18.24Q1153.11,1430.64,1145.99,1437.41Zm201.67,31.29a128.726,128.726,0,0,1-7.52,14.9,60.956,60.956,0,0,1-9.18,12.61q-2.895,2.82-9.54,3.65a108.69,108.69,0,0,1-13.66.84,99.76,99.76,0,0,1-11.3-.49,13.393,13.393,0,0,1-6.37-2.15,7.913,7.913,0,0,1-3.08-4.92,41.962,41.962,0,0,1-.79-9.14v-82.01a12.57,12.57,0,0,1,1.15-5.49,7.2,7.2,0,0,1,4.57-3.56,37.965,37.965,0,0,1,6.63-1.36q3.825-.48,6.64-0.75v-6.86h-68.47v6.86c1.52,0.24,3.56.6,6.11,1.1a30.122,30.122,0,0,1,6.55,1.98c2.46,1.11,4.01,2.36,4.65,3.73a12.273,12.273,0,0,1,.97,5.23v87.98a11.451,11.451,0,0,1-1.23,5.63,8.158,8.158,0,0,1-4.39,3.43,29.3,29.3,0,0,1-5.45,1.1c-2.76.38-5.16,0.65-7.21,0.83v6.86h114.87l2.46-40h-6.41Zm167.62-84.73h-54.14v6.86q2.295,0.36,7.96,1.93,5.67,1.59,7.95,3.52,3.165,2.46,4.7,8.04t1.54,16.83v42.28q0,18.1-8.69,27.42t-23.96,9.32q-15.54,0-23.7-8.44t-8.16-26.98v-62.93a13.035,13.035,0,0,1,1.14-5.54,6.892,6.892,0,0,1,4.49-3.52,42.7,42.7,0,0,1,5.88-1.45c1.94-.32,3.84-0.54,5.72-0.66v-6.68h-65.39v6.68q2.1,0.27,5.45.97a23.574,23.574,0,0,1,5.62,1.85,10.431,10.431,0,0,1,4.53,3.95,11.008,11.008,0,0,1,1.18,5.28v63.81q0,21.525,14.59,33.57t41.22,12.04q22.86,0,36.74-12.48t13.89-32.96v-46.41q0-11.415,1.36-17.13t4.7-7.91a20.43,20.43,0,0,1,8.05-3.21c3.19-.62,5.63-1.01,7.33-1.19v-6.86Zm94.52,125.16a51.668,51.668,0,0,0,16.26-8.54,36.406,36.406,0,0,0,10.19-12.58,34.68,34.68,0,0,0,3.78-15.67q0-12.84-6.64-21.52-6.63-8.655-19.38-13.59-5.265-2.025-12.04-4.23t-13.27-4.4q-11.07-3.6-16.3-8.36a15.78,15.78,0,0,1-5.23-12.24,17.112,17.112,0,0,1,6.02-13.29q6.015-5.37,15.51-5.37a27.3,27.3,0,0,1,13.19,3.04,34.247,34.247,0,0,1,9.93,8.14,61.814,61.814,0,0,1,7.51,11.94q3.555,7.185,6.2,14.06h7.56l-0.71-42.55h-7.64l-5.36,5.28a79.627,79.627,0,0,0-14.24-5.8,63.148,63.148,0,0,0-19.43-2.9,58.948,58.948,0,0,0-19.68,3.17,45.406,45.406,0,0,0-14.86,8.18,37.375,37.375,0,0,0-9.23,12.1,32.631,32.631,0,0,0-3.16,14.04,37.262,37.262,0,0,0,6.11,20.85q6.1,9.33,18.68,14.35,5.445,2.115,11.64,4.15t13.58,4.41q11.34,3.615,16.74,8.59a15.979,15.979,0,0,1,5.41,12.27,19.177,19.177,0,0,1-6.37,14.74q-6.375,5.85-18.33,5.85a31.382,31.382,0,0,1-15.51-3.7,47.241,47.241,0,0,1-12-9.6,66.117,66.117,0,0,1-9.14-12.78,117.657,117.657,0,0,1-6.5-13.56h-7.56l1.14,45.09h7.47l6.07-6.16a78.807,78.807,0,0,0,16.74,6.73,76.61,76.61,0,0,0,21.31,2.85A69.835,69.835,0,0,0,1609.8,1509.13Zm174.27-125.16H1663.22v35.69h6.85a76.959,76.959,0,0,1,8.73-17.14q6-9.135,11.09-9.84c1.87-.24,4.18-0.44,6.93-0.62s5.11-.26,7.1-0.26h4.12v98.7a12.914,12.914,0,0,1-1.14,5.63,8.224,8.224,0,0,1-4.57,3.78,25.5,25.5,0,0,1-6.28,1.18c-3.08.33-5.47,0.57-7.17,0.75v6.86h69.52v-6.86q-2.985-.345-7.25-1.19a39.781,39.781,0,0,1-6.28-1.62,8.088,8.088,0,0,1-4.48-3.83,12.79,12.79,0,0,1-1.15-5.58V1391.8h4.13q2.97,0,7.1.26c2.74,0.18,5.05.38,6.92,0.62q5.1,0.705,11.1,9.84a76.886,76.886,0,0,1,8.72,17.14h6.86v-35.69Z"/>
  </g>
  <g id="Craft">
    <path id="Wings" class="cls-2" d="M997.149,900.533l-396.295,83.11v60.1l396.295,75.17,402.9-75.17v-60.1Z"/>
    <g id="Body">
      <path id="Body-2" data-name="Body" class="cls-1" d="M981.454,371.3h32.4l36,216.208h24l75.6,445.012-75.6,122.41h-39.6L1056,1210l-21.75,98.53h-68.4l-24-98.4,24-55.2h-38.4l-76.8-120.01,75.6-448.812h25.2Z"/>
      <path id="BodyExhaust" class="cls-3" d="M943,1210l23.771,98.53h67.479L1056,1210H943Z"/>
      <path id="LeftWindow" class="cls-3" d="M870.885,972.314l17.387-4.659,21.741,81.145-17.387,4.65Z"/>
      <path id="RightWindow" class="cls-3" d="M1111.83,967.655l17.38,4.659-21.74,81.136-17.38-4.65Z"/>
      <path class="cls-4" d="M999.854,622.109c44.736,0,81,107.455,81,240.008s-36.26,240.013-81,240.013-81-107.459-81-240.013S955.119,622.109,999.854,622.109Z"/>
    </g>
    <g id="Right">
      <path id="RightEngine" class="cls-1" d="M1370.05,941.32l-36,120,12,180.01,54,30,54-30,12-180.01-36-120h-60Z"/>
      <path id="RightExhaust" class="cls-3" d="M1344.85,1209.5l2.4,31.83,52.8,30,52.8-30,2.4-31.83h-110.4Z"/>
      <path id="RightPointer" class="cls-3" d="M1400.05,910.119l-12,31.2v78l12,23.96,12-23.96v-78Z"/>
    </g>
    <g id="Left">
      <path id="LeftEngine" class="cls-1" d="M570.854,941.32l-36,120,12,180.01,54,30,54-30,12-180.01-36-120h-60Z"/>
      <path id="LeftExhaust" class="cls-3" d="M545.654,1209.5l2.4,31.83,52.8,30,52.8-30,2.4-31.83h-110.4Z"/>
      <path id="LeftPointer" class="cls-3" d="M600.854,910.119l-12,31.2v78l12,23.96,12-23.96v-78Z"/>
    </g>
  </g>
</svg>
