<svg id="TextShapes" xmlns="http://www.w3.org/2000/svg" width="1920" height="576" viewBox="0 0 1920 576">
  <defs>
    <style>
      .cls-1, .cls-2, .cls-3, .cls-4 {
        fill-rule: evenodd;
      }

      .cls-2, .cls-4 {
        fill: #39c;
      }

      .cls-3 {
        fill: #03f;
      }

      .cls-4 {
        stroke: #0b0b0e;
        stroke-width: 1px;
      }
    </style>
  </defs>
  <path id="IIIT_HYDERABAD" data-name="IIIT HYDERABAD" class="cls-1" d="M532.674,395.4h14.28V329.112h-14.28V395.4Zm37.83,0h14.281V329.112H570.5V395.4Zm37.831,0h14.281V329.112H608.335V395.4Zm32.022-52.2h15.088v52.2h14.28V343.2h15.189V329.112H640.357V343.2Zm102.062,52.2H756.7V369.044h23.464V395.4h14.28V329.112h-14.28v25.544H756.7V329.112H742.419V395.4Zm90.757-31v31h14.129v-31L868.4,329.112H852.524l-12.4,20.55L827.9,329.112H812.084Zm52.9,31h21.4q15.138,0,24.246-9.037t9.109-24.03q0-14.943-8.831-24.081t-23.313-9.137H886.079V395.4Zm19.629-53.766a30.128,30.128,0,0,1,9.865,1.793,13.952,13.952,0,0,1,7.9,6.815,23.8,23.8,0,0,1,2.725,11.535q0,11.208-5.652,16t-14.431,4.8H900.46V341.631h5.248ZM961.982,395.4h37.29V382.271h-23.01V368.539h23.01V355.615h-23.01V342.237h23.01V329.112h-37.29V395.4Zm60.368,0h14.28V369.751h1.62l17.14,25.646h16.41l-18.54-27.634q7.125-3.129,9.78-8.628a24.351,24.351,0,0,0,2.66-10.6q0-8.931-5.79-14.179t-15.73-5.247h-21.83V395.4Zm17.67-54.472q5.175,0,8.08,2.2a7.044,7.044,0,0,1,2.91,5.932q0,9.138-11.19,9.137h-3.09V340.925h3.29ZM1088.9,395.4h14.3l5.19-13.025h25.43l5.3,13.025h14.37l-26.99-66.285h-11.06Zm40.03-25.04h-15.75l7.79-19.538Zm42.78,25.04h22.18q11.34,0,17.59-5.1t6.25-14.247a18.5,18.5,0,0,0-2.85-9.877q-2.85-4.622-9.71-7a21.934,21.934,0,0,0,5.2-5.977,14.981,14.981,0,0,0,1.61-7.239,17.34,17.34,0,0,0-4.43-11.8q-4.44-5.045-16.53-5.044h-19.31V395.4Zm17.65-55.179a9.45,9.45,0,0,1,6.03,1.9,5.707,5.707,0,0,1,2.41,4.635,7.5,7.5,0,0,1-2.46,5.7,8.558,8.558,0,0,1-6.08,2.305h-3.27V340.218h3.37Zm2.45,25.8c3.55,0,6.27.835,8.18,2.506a9.006,9.006,0,0,1,2.86,7.163q0,8.607-11.74,8.606h-5.12V366.015h5.82Zm39.27,29.382h14.3l5.19-13.025H1276l5.3,13.025h14.37l-26.99-66.285h-11.06Zm40.03-25.04h-15.75l7.79-19.538Zm42.68,25.04h21.4q15.135,0,24.24-9.037t9.11-24.03q0-14.943-8.83-24.081t-23.31-9.137h-22.61V395.4Zm19.63-53.766a30.152,30.152,0,0,1,9.87,1.793,13.945,13.945,0,0,1,7.89,6.815,23.771,23.771,0,0,1,2.73,11.535q0,11.208-5.65,16t-14.43,4.8h-5.66V341.631h5.25Z"/>
  <path id="WANDERLUST" class="cls-1" d="M690.518,184.551H647.3v6.058q2.49,0.228,5.85.644a30.667,30.667,0,0,1,5.474,1.1,13.552,13.552,0,0,1,3.965,1.969,3.357,3.357,0,0,1,1.475,2.726,26.507,26.507,0,0,1-.908,6.285q-0.909,3.636-2.422,9.012-2.572,8.783-6.318,21.125t-10.027,31.8L616.11,184.551H600.05l-24.479,78.23q-8.1-24.432-13.627-40.922t-7.342-22.39q-0.3-1.286-.568-2.271a7.812,7.812,0,0,1-.265-2.045,3.047,3.047,0,0,1,.3-1.212,3.114,3.114,0,0,1,1.663-1.287,24.6,24.6,0,0,1,3.927-1.174q2.493-.567,7.554-1.173v-5.756h-57.3v5.907a37.469,37.469,0,0,1,5.336,1.022,15.133,15.133,0,0,1,4.352,2.007,28.6,28.6,0,0,1,4.693,3.748,16.266,16.266,0,0,1,3.255,5.945q4.615,13.479,11.354,33.357t19.377,56.681h15.274l25.547-79.825,28.281,79.825h15.294q9.384-27.336,18.052-52.705t12.83-36.879a29.773,29.773,0,0,1,2.687-5.679,13.571,13.571,0,0,1,4.957-4.316,30.851,30.851,0,0,1,4.618-2.007,20.865,20.865,0,0,1,4.693-1.023v-6.058ZM809.051,286.1a35.026,35.026,0,0,1-5.071-.757,17.13,17.13,0,0,1-4.92-1.817A16.116,16.116,0,0,1,794.746,280a17.392,17.392,0,0,1-2.5-4.127q-5.9-13.932-14.306-35.136t-23.237-57.7H739.567q-10.673,25.747-19.491,47.1t-17.6,42.634a23.654,23.654,0,0,1-3.6,6.285,19.244,19.244,0,0,1-5.26,4.468,15.18,15.18,0,0,1-4.958,1.779,40.38,40.38,0,0,1-5.639.8v5.907h44.053V286.1q-8.545-.756-12.214-2.461t-3.667-4.127a22.325,22.325,0,0,1,.264-2.65,39.229,39.229,0,0,1,1.695-6.134q1.128-3.255,2.671-7.421t2.823-7.27h37.078l9.166,22.264a9.582,9.582,0,0,1,.643,2.044,9.255,9.255,0,0,1,.114,1.363q0,1.743-5.515,2.916a72.73,72.73,0,0,1-9.594,1.476v5.907h58.509V286.1Zm-87.3-37.559L737.068,209.7l15.545,38.842H721.75Zm232.786-63.989h-46.1v5.907a67.283,67.283,0,0,1,6.963,1.7,19.2,19.2,0,0,1,6.51,2.989,13.143,13.143,0,0,1,4.087,7q1.285,4.731,1.287,14.419v40.645l-58.725-72.666H828.131v6.058a37.887,37.887,0,0,1,7.834,2.31,19.979,19.979,0,0,1,6.093,4.051,14.7,14.7,0,0,1,3.671,5.793,21.62,21.62,0,0,1,1.173,7.156v50.888q0,10.45-1.1,14.88a11.284,11.284,0,0,1-4.05,6.626A17.828,17.828,0,0,1,835.36,285a47.194,47.194,0,0,1-6.775,1.1v5.907h46.172V286.1a69.618,69.618,0,0,1-7.115-1.741,18.762,18.762,0,0,1-6.51-2.954q-2.8-2.271-4.049-7.156t-1.249-14.274V209.541l66.911,83.071h13.473V215.826a67.765,67.765,0,0,1,1.174-14.577q1.171-4.959,3.973-7a15.891,15.891,0,0,1,7.115-2.953q3.936-.6,6.056-0.833v-5.907ZM1054.55,186.9a89.762,89.762,0,0,0-19.61-2.348H977.8v5.907q1.74,0.153,4.958.606a22.58,22.58,0,0,1,6.093,1.742,7.305,7.305,0,0,1,3.86,3.369,10.773,10.773,0,0,1,.984,4.657v76.18a9.553,9.553,0,0,1-1.059,4.657,7.286,7.286,0,0,1-3.785,3.067,19.273,19.273,0,0,1-4.844.909q-3.633.38-6.055,0.454v5.907h54.123a91.664,91.664,0,0,0,24.18-3.143,64.828,64.828,0,0,0,20.63-9.579,48.005,48.005,0,0,0,14.34-16.546q5.415-10.11,5.41-23.74,0-15.522-6.05-26.239a48.859,48.859,0,0,0-15.9-17.152A60.9,60.9,0,0,0,1054.55,186.9Zm-5.23,95.035a31.485,31.485,0,0,1-14.68,3.181,20.777,20.777,0,0,1-6.62-.871,12.058,12.058,0,0,1-4.28-2.461,8.846,8.846,0,0,1-2.46-3.673,14.7,14.7,0,0,1-.72-4.808V191.745c1.11-.049,2.79-0.113,5.03-0.189s4.25-.114,6.02-0.114a31.779,31.779,0,0,1,14.88,3.408,30.466,30.466,0,0,1,10.93,9.617,45.273,45.273,0,0,1,6.66,14.994,77.458,77.458,0,0,1,2.27,19.461,97.036,97.036,0,0,1-1.7,19.273,44.3,44.3,0,0,1-5.41,14.425A25.056,25.056,0,0,1,1049.32,281.934Zm162.48-97.383h-95.21v5.907q1.815,0.227,5.37.984a27.255,27.255,0,0,1,5.52,1.666q3.18,1.44,4.02,3.219a10.725,10.725,0,0,1,.83,4.5v75.8a10,10,0,0,1-.99,4.733,7.318,7.318,0,0,1-3.86,3.066,23.029,23.029,0,0,1-5.14,1.061q-3.63.453-5.75,0.6v5.907h100.74l2.04-33.471h-5.52a82.259,82.259,0,0,1-5.98,11.4,61.814,61.814,0,0,1-8.18,11.321,8.68,8.68,0,0,1-4.12,2.2,40.515,40.515,0,0,1-5.94,1.136,57.667,57.667,0,0,1-6.51.454c-2.48.051-4.59,0.076-6.36,0.076a69.179,69.179,0,0,1-8.97-.454,10.923,10.923,0,0,1-5.18-1.894,7.611,7.611,0,0,1-2.69-4.354,32.56,32.56,0,0,1-.72-7.686V239.755h11.05a27.4,27.4,0,0,1,7.87,1.023,12.986,12.986,0,0,1,5.91,3.748,22.284,22.284,0,0,1,3.52,6.626,38.43,38.43,0,0,1,2.3,7.989h5.76V214.312h-5.76a36.648,36.648,0,0,1-2.3,7.648,19.178,19.178,0,0,1-3.52,6.134,14.406,14.406,0,0,1-6.21,3.786,27.221,27.221,0,0,1-7.57.984H1159.2V191.442h15.59q2.655,0,6.7.114a33.524,33.524,0,0,1,6.32.641q5.3,1.132,10.67,7.394a39.933,39.933,0,0,1,7.57,12.373h5.75V184.551ZM1366.16,286.1c-0.76-.049-2.04-0.2-3.83-0.454a29.675,29.675,0,0,1-4.42-.909q-3.105-.982-7.16-5.263t-6.39-7.231q-7.425-9.162-14.27-17.947t-12-15.448q13.245-3.863,19.72-10.716T1344.28,210q0-12.8-10.48-19.12t-30.7-6.324h-60.25v5.907c1.27,0.2,2.99.53,5.19,0.984a33.206,33.206,0,0,1,5.71,1.666q3.18,1.363,4.02,3.181a10.993,10.993,0,0,1,.83,4.543v75.8a10,10,0,0,1-.99,4.733,7.318,7.318,0,0,1-3.86,3.066,21.963,21.963,0,0,1-5.11,1.023q-3.585.417-5.79,0.643v5.907h57.3V286.1a52.85,52.85,0,0,1-5.26-.87,26.621,26.621,0,0,1-4.5-1.25,7.821,7.821,0,0,1-3.9-3.18,9.629,9.629,0,0,1-1.02-4.62V243.542h4.15q10.515,12.722,17.58,22.414,7.08,9.694,17.74,26.05h41.22V286.1Zm-57.68-55.506q-6.135,5.832-17.26,5.83h-5.75V191.442h5.98q11.13,0,17.14,4.96t6.02,15.714Q1314.61,224.763,1308.48,230.593Zm173.68,26.958a112.058,112.058,0,0,1-6.47,12.835,53.09,53.09,0,0,1-7.91,10.867q-2.505,2.424-8.22,3.143a94.068,94.068,0,0,1-11.77.719,87.287,87.287,0,0,1-9.72-.417,11.487,11.487,0,0,1-5.49-1.855,6.847,6.847,0,0,1-2.65-4.24,36.042,36.042,0,0,1-.68-7.876V200.075a11.042,11.042,0,0,1,.98-4.733,6.232,6.232,0,0,1,3.94-3.067,33.342,33.342,0,0,1,5.72-1.173q3.285-.416,5.71-0.644v-5.907h-58.96v5.907q1.965,0.3,5.26.947a26.008,26.008,0,0,1,5.64,1.7c2.12,0.96,3.45,2.033,4.01,3.219a10.725,10.725,0,0,1,.83,4.5v75.8a9.8,9.8,0,0,1-1.06,4.846,7.037,7.037,0,0,1-3.78,2.953,24.567,24.567,0,0,1-4.7.947q-3.555.494-6.2,0.719v5.907h98.92l2.12-34.455h-5.52Zm144.36-73h-46.63v5.907a69.088,69.088,0,0,1,6.85,1.666q4.89,1.363,6.85,3.029,2.73,2.121,4.05,6.929t1.33,14.5v36.424q0,15.6-7.49,23.627t-20.63,8.027q-13.38,0-20.41-7.27t-7.03-23.248V199.924a11.294,11.294,0,0,1,.98-4.771,5.916,5.916,0,0,1,3.86-3.029,35.732,35.732,0,0,1,5.07-1.249,48.705,48.705,0,0,1,4.92-.568v-5.756h-56.31v5.756c1.21,0.151,2.77.429,4.69,0.833a20.341,20.341,0,0,1,4.85,1.59,9.1,9.1,0,0,1,3.9,3.407,9.459,9.459,0,0,1,1.02,4.544v54.977q0,18.554,12.56,28.927t35.5,10.374q19.68,0,31.64-10.753t11.96-28.4V215.826q0-9.843,1.17-14.766t4.05-6.816a17.78,17.78,0,0,1,6.93-2.764c2.75-.53,4.85-0.871,6.32-1.022v-5.907Zm81.39,107.83a44.459,44.459,0,0,0,14-7.355,31.233,31.233,0,0,0,8.78-10.843,29.879,29.879,0,0,0,3.26-13.5q0-11.068-5.72-18.538t-16.69-11.717q-4.53-1.742-10.36-3.639T1689.75,223q-9.54-3.11-14.05-7.206a13.61,13.61,0,0,1-4.5-10.543,14.733,14.733,0,0,1,5.19-11.453q5.175-4.626,13.36-4.627a23.543,23.543,0,0,1,11.35,2.618,29.408,29.408,0,0,1,8.55,7.021,52.579,52.579,0,0,1,6.47,10.286q3.075,6.188,5.34,12.107h6.51l-0.61-36.652h-6.58l-4.62,4.544a68.936,68.936,0,0,0-12.26-5,54.5,54.5,0,0,0-16.73-2.5,50.934,50.934,0,0,0-16.95,2.73,39.045,39.045,0,0,0-12.79,7.051,31.956,31.956,0,0,0-7.95,10.425,28.075,28.075,0,0,0-2.73,12.093,32.156,32.156,0,0,0,5.26,17.97q5.265,8.035,16.09,12.359,4.7,1.826,10.03,3.575t11.69,3.8q9.765,3.12,14.42,7.4a13.811,13.811,0,0,1,4.66,10.572,16.5,16.5,0,0,1-5.49,12.7q-5.49,5.04-15.78,5.039a26.973,26.973,0,0,1-13.36-3.188,40.741,40.741,0,0,1-10.34-8.271,57.26,57.26,0,0,1-7.87-11,100.726,100.726,0,0,1-5.6-11.688h-6.51l0.99,38.847h6.43l5.22-5.3a67.853,67.853,0,0,0,14.42,5.793,65.928,65.928,0,0,0,18.36,2.461A60.226,60.226,0,0,0,1707.91,292.381Zm150.08-107.83H1753.92V215.3h5.9a66.039,66.039,0,0,1,7.52-14.766q5.175-7.875,9.55-8.482,2.415-.3,5.97-0.53t6.11-.227h3.55v85.04a11.158,11.158,0,0,1-.98,4.846,7.072,7.072,0,0,1-3.94,3.256,21.926,21.926,0,0,1-5.41,1.023q-3.975.417-6.17,0.643v5.907h59.87V286.1q-2.565-.3-6.24-1.022a33.758,33.758,0,0,1-5.41-1.4,6.964,6.964,0,0,1-3.86-3.294,11.076,11.076,0,0,1-.99-4.808V191.291h3.55q2.565,0,6.12.227t5.96,0.53q4.38,0.608,9.56,8.482a65.966,65.966,0,0,1,7.51,14.766h5.9V184.551Z"/>
  <g id="Craft">
    <path id="Wings" class="cls-2" d="M278.387,312.754L116.534,346.706v24.552l161.853,30.709,164.552-30.709V346.706Z"/>
    <g id="Body">
      <path id="Body-2" data-name="Body" class="cls-1" d="M271.976,96.553h13.233l14.7,88.325h9.8l30.876,181.8-30.876,50H293.541l8.881,22.5-8.881,40.253H265.605l-9.8-40.2,9.8-22.551H249.922l-31.366-49.024,30.876-183.349h10.292Z"/>
      <path id="BodyExhaust" class="cls-3" d="M256.271,439.177l9.708,40.253h27.562l8.881-40.253H256.271Z"/>
      <path id="LeftWindow" class="cls-3" d="M226.818,342.078l7.1-1.9,8.88,33.147-7.1,1.9Z"/>
      <path id="RightWindow" class="cls-3" d="M325.222,340.175l7.1,1.9-8.879,33.147-7.1-1.9Z"/>
      <path class="cls-4" d="M279.491,199.013c18.271,0,33.082,43.9,33.082,98.048s-14.811,98.048-33.082,98.048-33.081-43.9-33.081-98.048S261.221,199.013,279.491,199.013Z"/>
    </g>
    <g id="Right">
      <path id="RightEngine" class="cls-1" d="M430.686,329.417l-14.7,49.023,4.9,73.536,22.055,12.256,22.054-12.256,4.9-73.536-14.7-49.023h-24.5Z"/>
      <path id="RightExhaust" class="cls-3" d="M420.394,438.974l0.98,13,21.565,12.256L464.5,451.976l0.98-13H420.394Z"/>
      <path id="RightPointer" class="cls-3" d="M442.939,316.67l-4.9,12.747v31.865l4.9,9.786,4.9-9.786V329.417Z"/>
    </g>
    <g id="Left">
      <path id="LeftEngine" class="cls-1" d="M104.281,329.417l-14.7,49.023,4.9,73.536,22.055,12.256,22.054-12.256,4.9-73.536-14.7-49.023h-24.5Z"/>
      <path id="LeftExhaust" class="cls-3" d="M93.989,438.974l0.98,13,21.565,12.256L138.1,451.976l0.98-13H93.989Z"/>
      <path id="LeftPointer" class="cls-3" d="M116.534,316.67l-4.9,12.747v31.865l4.9,9.786,4.9-9.786V329.417Z"/>
    </g>
  </g>
</svg>
