<svg id="TextShapes" xmlns="http://www.w3.org/2000/svg" width="1920" height="480" viewBox="0 0 1920 480">
  <defs>
    <style>
      .cls-1, .cls-2, .cls-3, .cls-4 {
        fill-rule: evenodd;
      }

      .cls-2, .cls-4 {
        fill: #39c;
      }

      .cls-3 {
        fill: #03f;
      }

      .cls-4 {
        stroke: #0b0b0e;
        stroke-width: 1px;
      }
    </style>
  </defs>
  <path id="IIIT_HYDERABAD" data-name="IIIT HYDERABAD" class="cls-1" d="M478.885,354h14.99V284.239h-14.99V354Zm39.709,0h14.99V284.239h-14.99V354Zm39.709,0h14.99V284.239H558.3V354Zm33.612-54.934h15.837V354h14.989V299.062h15.943V284.239H591.915v14.823ZM699.044,354h14.99V326.263h24.629V354h14.99V284.239h-14.99v26.883H714.034V284.239h-14.99V354Zm95.263-32.621V354h14.831V321.375l22.14-37.136H814.616L801.6,305.865l-12.831-21.626h-16.6ZM849.836,354h22.458q15.889,0,25.45-9.51t9.561-25.289q0-15.726-9.27-25.342t-24.47-9.616H849.836V354Zm20.6-56.581A31.561,31.561,0,0,1,880.8,299.3a14.658,14.658,0,0,1,8.289,7.172,25.108,25.108,0,0,1,2.86,12.14q0,11.795-5.932,16.841T870.864,340.5h-5.932V297.415h5.508ZM929.508,354H968.65V340.183H944.5V325.732H968.65v-13.6H944.5V298.052H968.65V284.239H929.508V354Zm63.367,0h14.985V327.007h1.7l18,26.989h17.22l-19.46-29.081q7.485-3.292,10.27-9.08a25.767,25.767,0,0,0,2.78-11.152q0-9.4-6.07-14.921t-16.52-5.523h-22.9V354Zm18.555-57.325c3.61,0,6.44.77,8.47,2.311a7.416,7.416,0,0,1,3.06,6.242q0,9.617-11.75,9.617h-3.24v-18.17h3.46ZM1062.73,354h15.01l5.45-13.707h26.69L1115.44,354h15.09l-28.33-69.757h-11.62Zm42.01-26.351h-16.52l8.17-20.561ZM1149.65,354h23.28q11.91,0,18.47-5.369t6.56-14.993a19.542,19.542,0,0,0-2.99-10.394q-3-4.865-10.2-7.363a23.169,23.169,0,0,0,5.46-6.29,15.722,15.722,0,0,0,1.69-7.618,18.26,18.26,0,0,0-4.65-12.422q-4.665-5.307-17.36-5.308h-20.26V354Zm18.53-58.069a9.9,9.9,0,0,1,6.33,2,6.038,6.038,0,0,1,2.53,4.878,7.876,7.876,0,0,1-2.59,6,8.965,8.965,0,0,1-6.38,2.426h-3.43v-15.3h3.54Zm2.57,27.148q5.58,0,8.58,2.638t3,7.538q0,9.059-12.32,9.057h-5.37V323.075h6.11ZM1211.97,354h15l5.46-13.707h26.68L1264.68,354h15.09l-28.34-69.757h-11.61Zm42.01-26.351h-16.53l8.18-20.561ZM1298.79,354h22.45q15.9,0,25.45-9.51,9.57-9.51,9.56-25.289,0-15.726-9.27-25.342t-24.47-9.616h-23.72V354Zm20.6-56.581a31.551,31.551,0,0,1,10.35,1.886,14.635,14.635,0,0,1,8.29,7.172,25.074,25.074,0,0,1,2.86,12.14q0,11.795-5.93,16.841t-15.15,5.048h-5.93V297.415h5.51Z"/>
  <path id="WANDERLUST" class="cls-1" d="M644.566,132.106H599.2v6.376q2.614,0.238,6.141.677a32.031,32.031,0,0,1,5.746,1.156,14.222,14.222,0,0,1,4.162,2.072,3.535,3.535,0,0,1,1.548,2.869,27.923,27.923,0,0,1-.954,6.614q-0.952,3.825-2.542,9.483-2.7,9.244-6.631,22.232t-10.525,33.467l-29.68-84.946H549.606l-25.694,82.327q-8.5-25.711-14.3-43.065T501.9,147.806q-0.318-1.355-.6-2.391a8.23,8.23,0,0,1-.278-2.152,3.21,3.21,0,0,1,.318-1.275,3.267,3.267,0,0,1,1.745-1.355,25.82,25.82,0,0,1,4.123-1.235q2.616-.6,7.929-1.235v-6.057H455v6.216a39.269,39.269,0,0,1,5.6,1.076,15.877,15.877,0,0,1,4.568,2.112,30.014,30.014,0,0,1,4.926,3.945,17.127,17.127,0,0,1,3.416,6.256q4.845,14.185,11.918,35.1t20.339,59.65H521.8l26.816-84.006L578.3,246.465h16.053Q604.2,217.7,613.3,191t13.467-38.81a31.5,31.5,0,0,1,2.82-5.977,14.284,14.284,0,0,1,5.2-4.543,32.258,32.258,0,0,1,4.847-2.111,21.786,21.786,0,0,1,4.926-1.076v-6.376ZM768.985,238.974a36.808,36.808,0,0,1-5.323-.8,17.959,17.959,0,0,1-5.165-1.913,16.928,16.928,0,0,1-4.528-3.706,18.344,18.344,0,0,1-2.622-4.343q-6.2-14.662-15.016-36.977T711.94,130.512H696.05q-11.2,27.1-20.458,49.569T657.12,224.948a24.919,24.919,0,0,1-3.774,6.614,20.206,20.206,0,0,1-5.522,4.7,15.9,15.9,0,0,1-5.2,1.873,42.474,42.474,0,0,1-5.919.837v6.216h46.24v-6.216q-8.97-.8-12.82-2.59t-3.849-4.344a23.372,23.372,0,0,1,.278-2.789,41.191,41.191,0,0,1,1.779-6.455q1.184-3.426,2.8-7.81t2.963-7.65h38.919l9.621,23.429a10.04,10.04,0,0,1,.675,2.152,9.866,9.866,0,0,1,.119,1.434q0,1.835-5.789,3.069a76.233,76.233,0,0,1-10.07,1.554v6.216h61.415v-6.216Zm-91.637-39.528,16.079-40.876,16.317,40.876h-32.4Zm244.344-67.34H873.307v6.216a70.6,70.6,0,0,1,7.31,1.793,20.106,20.106,0,0,1,6.832,3.146,13.844,13.844,0,0,1,4.291,7.369q1.35,4.979,1.35,15.174v42.774l-61.64-76.472H789.012v6.376a39.6,39.6,0,0,1,8.223,2.43,20.939,20.939,0,0,1,6.395,4.264,15.469,15.469,0,0,1,3.854,6.1,22.826,22.826,0,0,1,1.231,7.531v53.553q0,11-1.152,15.66a11.876,11.876,0,0,1-4.25,6.973,18.718,18.718,0,0,1-6.714,2.829,49.617,49.617,0,0,1-7.111,1.156v6.216h48.464v-6.216a73.049,73.049,0,0,1-7.468-1.833,19.66,19.66,0,0,1-6.832-3.108q-2.942-2.391-4.251-7.531T818.09,211.48V158.405l70.233,87.422h14.142V165.019q0-10.119,1.232-15.341t4.171-7.371a16.648,16.648,0,0,1,7.468-3.108q4.131-.638,6.356-0.877v-6.216Zm104.978,2.471a93.931,93.931,0,0,0-20.58-2.471H946.106v6.216q1.827,0.161,5.2.638a23.652,23.652,0,0,1,6.4,1.833,7.677,7.677,0,0,1,4.052,3.546,11.371,11.371,0,0,1,1.033,4.9v80.171a10.08,10.08,0,0,1-1.112,4.9,7.661,7.661,0,0,1-3.973,3.227,20.2,20.2,0,0,1-5.085.956q-3.813.4-6.356,0.479v6.216h56.805a95.964,95.964,0,0,0,25.39-3.308,67.956,67.956,0,0,0,21.65-10.081,50.551,50.551,0,0,0,15.05-17.412q5.685-10.64,5.68-24.984,0-16.335-6.35-27.613a51.32,51.32,0,0,0-16.69-18.051A63.8,63.8,0,0,0,1026.67,134.577Zm-5.48,100.014a33.039,33.039,0,0,1-15.42,3.347,21.786,21.786,0,0,1-6.949-.917,12.614,12.614,0,0,1-4.489-2.59,9.289,9.289,0,0,1-2.582-3.865,15.5,15.5,0,0,1-.755-5.06V139.677q1.747-.078,5.284-0.2t6.311-.12a33.3,33.3,0,0,1,15.62,3.586,32.131,32.131,0,0,1,11.48,10.121,47.926,47.926,0,0,1,6.99,15.779,81.981,81.981,0,0,1,2.38,20.481,102.085,102.085,0,0,1-1.79,20.282,46.612,46.612,0,0,1-5.68,15.181A26.352,26.352,0,0,1,1021.19,234.591Zm170.54-102.485h-99.94v6.216q1.9,0.24,5.64,1.036a28.559,28.559,0,0,1,5.8,1.754c2.22,1.009,3.63,2.139,4.21,3.386a11.277,11.277,0,0,1,.87,4.742v79.772a10.583,10.583,0,0,1-1.03,4.981,7.731,7.731,0,0,1-4.05,3.227,24.2,24.2,0,0,1-5.4,1.116q-3.825.478-6.04,0.638v6.216h105.74l2.15-35.224h-5.8a87.045,87.045,0,0,1-6.28,11.993,65.047,65.047,0,0,1-8.58,11.914,9.108,9.108,0,0,1-4.33,2.311,42.359,42.359,0,0,1-6.23,1.2,60.486,60.486,0,0,1-6.84.478c-2.59.053-4.82,0.08-6.67,0.08a72.43,72.43,0,0,1-9.42-.479,11.478,11.478,0,0,1-5.44-1.992,8.017,8.017,0,0,1-2.82-4.582,34.6,34.6,0,0,1-.75-8.089V190.2h11.6a28.731,28.731,0,0,1,8.26,1.076,13.612,13.612,0,0,1,6.2,3.945,23.545,23.545,0,0,1,3.69,6.973,39.73,39.73,0,0,1,2.42,8.407h6.04V163.425h-6.04a38.767,38.767,0,0,1-2.42,8.049,20.154,20.154,0,0,1-3.69,6.455,15.048,15.048,0,0,1-6.52,3.985,28.449,28.449,0,0,1-7.94,1.036h-11.6V139.358h16.36q2.79,0,7.03.12a35.116,35.116,0,0,1,6.64.675q5.565,1.191,11.2,7.781a42.365,42.365,0,0,1,7.95,13.021h6.03V132.106Zm162.02,106.868c-0.8-.053-2.13-0.212-4.01-0.479a31.338,31.338,0,0,1-4.65-.956q-3.255-1.035-7.51-5.538t-6.71-7.611q-7.785-9.642-14.98-18.887t-12.59-16.257q13.9-4.065,20.69-11.277t6.8-19.086q0-13.467-11.01-20.122-10.995-6.654-32.21-6.655h-63.24v6.216q1.98,0.32,5.44,1.036a34.966,34.966,0,0,1,6,1.754q3.33,1.434,4.21,3.347a11.552,11.552,0,0,1,.87,4.781v79.772a10.583,10.583,0,0,1-1.03,4.981,7.731,7.731,0,0,1-4.05,3.227,23.052,23.052,0,0,1-5.37,1.076c-2.51.293-4.54,0.518-6.07,0.678v6.216h60.14v-6.216a54.643,54.643,0,0,1-5.52-.917,27.806,27.806,0,0,1-4.73-1.315,8.208,8.208,0,0,1-4.09-3.347,10.077,10.077,0,0,1-1.07-4.861V194.187h4.35q11.04,13.387,18.46,23.588t18.62,27.415h43.26v-6.216Zm-60.54-58.415q-6.435,6.138-18.12,6.137h-6.03V139.358h6.27q11.685,0,18,5.22t6.31,16.536Q1299.64,174.425,1293.21,180.559Zm182.3,28.371a116.994,116.994,0,0,1-6.79,13.507,55.96,55.96,0,0,1-8.3,11.436c-1.75,1.7-4.63,2.8-8.62,3.308a98.619,98.619,0,0,1-12.36.757,91.533,91.533,0,0,1-10.21-.439,12.08,12.08,0,0,1-5.76-1.952,7.172,7.172,0,0,1-2.78-4.463,37.575,37.575,0,0,1-.71-8.288V148.443a11.532,11.532,0,0,1,1.03-4.981,6.519,6.519,0,0,1,4.13-3.227,34.738,34.738,0,0,1,6-1.235q3.45-.438,6-0.678v-6.216h-61.89v6.216q2.055,0.32,5.52,1a27.229,27.229,0,0,1,5.92,1.794q3.33,1.514,4.21,3.386a11.277,11.277,0,0,1,.87,4.742v79.772a10.4,10.4,0,0,1-1.11,5.1,7.377,7.377,0,0,1-3.97,3.108,25.64,25.64,0,0,1-4.93,1q-3.735.519-6.51,0.757v6.216h103.84l2.22-36.26h-5.8Zm151.53-76.824H1578.1v6.216a73.381,73.381,0,0,1,7.19,1.754q5.115,1.434,7.19,3.187,2.85,2.232,4.25,7.292,1.38,5.063,1.39,15.261v38.332q0,16.417-7.86,24.864t-21.66,8.447q-14.04,0-21.42-7.65t-7.38-24.466V148.284a11.8,11.8,0,0,1,1.04-5.021,6.167,6.167,0,0,1,4.05-3.187,36.916,36.916,0,0,1,5.32-1.315,50.881,50.881,0,0,1,5.16-.6v-6.057h-59.11v6.057c1.28,0.159,2.92.452,4.93,0.877a21.072,21.072,0,0,1,5.08,1.673,9.472,9.472,0,0,1,4.1,3.586,10.021,10.021,0,0,1,1.07,4.782v57.856q0,19.527,13.19,30.443t37.26,10.918q20.655,0,33.21-11.317t12.55-29.884V165.019q0-10.359,1.23-15.54t4.25-7.172a18.639,18.639,0,0,1,7.27-2.909q4.335-.837,6.64-1.076v-6.216Zm85.43,113.478a46.789,46.789,0,0,0,14.7-7.74,32.923,32.923,0,0,0,9.22-11.411,31.6,31.6,0,0,0,3.41-14.2q0-11.649-6-19.51t-17.51-12.329q-4.77-1.835-10.89-3.831t-12-3.989q-10.005-3.273-14.73-7.583a14.31,14.31,0,0,1-4.73-11.1,15.522,15.522,0,0,1,5.44-12.053q5.445-4.869,14.02-4.869a24.648,24.648,0,0,1,11.92,2.755,31,31,0,0,1,8.98,7.389,55.418,55.418,0,0,1,6.79,10.825q3.225,6.51,5.6,12.74h6.84l-0.64-38.571h-6.91l-4.85,4.782a71.962,71.962,0,0,0-12.87-5.26A57.058,57.058,0,0,0,1690.7,129a53.315,53.315,0,0,0-17.79,2.873,41,41,0,0,0-13.43,7.42,33.663,33.663,0,0,0-8.34,10.971,29.613,29.613,0,0,0-2.86,12.728,33.85,33.85,0,0,0,5.52,18.91q5.52,8.457,16.88,13.006c3.29,1.282,6.79,2.536,10.53,3.763s7.82,2.562,12.27,4q10.26,3.284,15.14,7.789a14.529,14.529,0,0,1,4.89,11.126,17.421,17.421,0,0,1-5.76,13.36q-5.775,5.305-16.57,5.3a28.244,28.244,0,0,1-14.02-3.355,42.69,42.69,0,0,1-10.85-8.705,59.97,59.97,0,0,1-8.26-11.582,107.758,107.758,0,0,1-5.88-12.3h-6.83l1.03,40.883h6.75l5.49-5.579a70.726,70.726,0,0,0,15.13,6.1,69.023,69.023,0,0,0,19.27,2.59A63.047,63.047,0,0,0,1712.47,245.584Zm157.54-113.478H1760.76v32.355h6.2a69.742,69.742,0,0,1,7.89-15.54q5.43-8.288,10.03-8.925c1.69-.212,3.77-0.4,6.26-0.558s4.62-.239,6.42-0.239h3.72v89.494a11.664,11.664,0,0,1-1.03,5.1,7.431,7.431,0,0,1-4.13,3.426,23.012,23.012,0,0,1-5.68,1.076q-4.17.44-6.48,0.678v6.216h62.85v-6.216q-2.7-.318-6.56-1.076a35.574,35.574,0,0,1-5.68-1.475,7.354,7.354,0,0,1-4.05-3.466,11.725,11.725,0,0,1-1.03-5.061V139.2h3.72q2.7,0,6.42.239c2.49,0.159,4.57.346,6.27,0.558q4.59,0.639,10.02,8.925a69.742,69.742,0,0,1,7.89,15.54h6.2V132.106Z"/>
  <g id="Craft">
    <path id="Wings" class="cls-2" d="M219.772,262.786L74.224,293.353v22.1L219.772,343.1l147.975-27.647v-22.1Z"/>
    <g id="Body">
      <path id="Body-2" data-name="Body" class="cls-1" d="M214.008,68.142h11.9l13.222,79.518h8.815l27.765,163.67-27.765,45.019H233.4l7.986,20.255L233.4,412.843H208.278l-8.814-36.192,8.814-20.3h-14.1l-28.206-44.136,27.765-165.068h9.256Z"/>
      <path id="BodyExhaust" class="cls-3" d="M199.885,376.6l8.73,36.239H233.4l7.986-36.239h-41.5Z"/>
      <path id="LeftWindow" class="cls-3" d="M173.4,289.186l6.386-1.713,7.985,29.842-6.386,1.714Z"/>
      <path id="RightWindow" class="cls-3" d="M261.89,287.473l6.385,1.713-7.984,29.843-6.386-1.714Z"/>
      <path class="cls-4" d="M220.766,160.386c16.429,0,29.748,39.52,29.748,88.271s-13.319,88.272-29.748,88.272-29.749-39.52-29.749-88.272S204.336,160.386,220.766,160.386Z"/>
    </g>
    <g id="Right">
      <path id="RightEngine" class="cls-1" d="M356.729,277.787l-13.221,44.136,4.407,66.2,19.832,11.034,19.833-11.034,4.407-66.2-13.221-44.136H356.729Z"/>
      <path id="RightExhaust" class="cls-3" d="M347.474,376.421l0.882,11.706,19.391,11.034,19.392-11.034,0.882-11.706H347.474Z"/>
      <path id="RightPointer" class="cls-3" d="M367.747,266.312l-4.407,11.475v28.688l4.407,8.811,4.408-8.811V277.787Z"/>
    </g>
    <g id="Left">
      <path id="LeftEngine" class="cls-1" d="M63.206,277.787L49.984,321.923l4.407,66.2,19.833,11.034,19.832-11.034,4.407-66.2L85.242,277.787H63.206Z"/>
      <path id="LeftExhaust" class="cls-3" d="M53.951,376.421l0.881,11.706,19.392,11.034,19.392-11.034L94.5,376.421H53.951Z"/>
      <path id="LeftPointer" class="cls-3" d="M74.224,266.312l-4.407,11.475v28.688l4.407,8.811,4.407-8.811V277.787Z"/>
    </g>
  </g>
</svg>
